<svg width="228" height="25" viewBox="0 0 228 25" fill="none" xmlns="http://www.w3.org/2000/svg">
<path d="M59 0H12C5.37258 0 0 5.37258 0 12V13C0 19.6274 5.37258 25 12 25H59C65.6274 25 71 19.6274 71 13V12C71 5.37258 65.6274 0 59 0Z" fill="#458EF6" fill-opacity="0.26"/>
<path d="M26.47 12.39C26.2833 12.5433 25.9867 12.6967 25.58 12.85C25.1733 13.0033 24.73 13.08 24.25 13.08C23.4833 13.08 22.8167 12.9133 22.25 12.58C21.6833 12.2467 21.25 11.8 20.95 11.24C20.65 10.6733 20.5 10.0533 20.5 9.38C20.5 8.64 20.65 7.98 20.95 7.4C21.25 6.82 21.67 6.37 22.21 6.05C22.75 5.72333 23.3733 5.56 24.08 5.56C24.5267 5.56 24.94 5.62 25.32 5.74C25.7 5.86 26.0333 6.01 26.32 6.19L25.75 7.56C25.2233 7.16 24.6833 6.96 24.13 6.96C23.7567 6.96 23.4067 7.06333 23.08 7.27C22.7533 7.47667 22.4933 7.76 22.3 8.12C22.1067 8.47333 22.01 8.86667 22.01 9.3C22.01 9.77333 22.1 10.19 22.28 10.55C22.46 10.9033 22.7167 11.18 23.05 11.38C23.3833 11.58 23.7733 11.68 24.22 11.68C24.58 11.68 24.9033 11.6233 25.19 11.51C25.4767 11.39 25.7033 11.25 25.87 11.09L26.47 12.39ZM27.3527 10.76C27.3527 10.3133 27.456 9.91333 27.6627 9.56C27.876 9.20667 28.1727 8.93 28.5527 8.73C28.9393 8.52333 29.376 8.42 29.8627 8.42C30.3493 8.42 30.776 8.52333 31.1427 8.73C31.516 8.93 31.8027 9.20667 32.0027 9.56C32.2027 9.91333 32.3027 10.3133 32.3027 10.76C32.3027 11.2067 32.2027 11.61 32.0027 11.97C31.8027 12.33 31.516 12.6133 31.1427 12.82C30.776 13.02 30.3427 13.12 29.8427 13.12C29.356 13.12 28.9227 13.0267 28.5427 12.84C28.1693 12.6467 27.876 12.3733 27.6627 12.02C27.456 11.6667 27.3527 11.2467 27.3527 10.76ZM28.7627 10.77C28.7627 11.1167 28.8627 11.4067 29.0627 11.64C29.2627 11.8667 29.516 11.98 29.8227 11.98C30.1427 11.98 30.3993 11.8667 30.5927 11.64C30.7927 11.4133 30.8927 11.1233 30.8927 10.77C30.8927 10.4167 30.7927 10.1267 30.5927 9.9C30.3993 9.67333 30.1427 9.56 29.8227 9.56C29.516 9.56 29.2627 9.67667 29.0627 9.91C28.8627 10.1367 28.7627 10.4233 28.7627 10.77ZM34.8055 5.11V13H33.4055V5.11H34.8055ZM35.9073 10.76C35.9073 10.3133 36.0107 9.91333 36.2173 9.56C36.4307 9.20667 36.7273 8.93 37.1073 8.73C37.494 8.52333 37.9307 8.42 38.4173 8.42C38.904 8.42 39.3307 8.52333 39.6973 8.73C40.0707 8.93 40.3573 9.20667 40.5573 9.56C40.7573 9.91333 40.8573 10.3133 40.8573 10.76C40.8573 11.2067 40.7573 11.61 40.5573 11.97C40.3573 12.33 40.0707 12.6133 39.6973 12.82C39.3307 13.02 38.8973 13.12 38.3973 13.12C37.9107 13.12 37.4773 13.0267 37.0973 12.84C36.724 12.6467 36.4307 12.3733 36.2173 12.02C36.0107 11.6667 35.9073 11.2467 35.9073 10.76ZM37.3173 10.77C37.3173 11.1167 37.4173 11.4067 37.6173 11.64C37.8173 11.8667 38.0707 11.98 38.3773 11.98C38.6973 11.98 38.954 11.8667 39.1473 11.64C39.3473 11.4133 39.4473 11.1233 39.4473 10.77C39.4473 10.4167 39.3473 10.1267 39.1473 9.9C38.954 9.67333 38.6973 9.56 38.3773 9.56C38.0707 9.56 37.8173 9.67667 37.6173 9.91C37.4173 10.1367 37.3173 10.4233 37.3173 10.77ZM43.3302 9.63C43.4502 9.39667 43.6136 9.18667 43.8202 9C44.0336 8.81333 44.2502 8.67 44.4702 8.57C44.6902 8.46333 44.8636 8.41 44.9902 8.41L44.9202 9.81C44.8802 9.80333 44.8236 9.8 44.7502 9.8C44.4702 9.8 44.2236 9.87333 44.0102 10.02C43.7969 10.1667 43.6336 10.3567 43.5202 10.59C43.4069 10.8167 43.3502 11.05 43.3502 11.29V13H41.9602V8.63H43.2202L43.3302 9.63ZM47.4818 13.09C47.1218 13.09 46.7851 13.0267 46.4718 12.9C46.1585 12.7733 45.8985 12.5967 45.6918 12.37L46.2718 11.6C46.6585 11.96 47.0218 12.14 47.3618 12.14C47.5418 12.14 47.6851 12.1133 47.7918 12.06C47.9051 12 47.9618 11.9133 47.9618 11.8C47.9618 11.6667 47.8985 11.5667 47.7718 11.5C47.6451 11.4267 47.5018 11.3667 47.3418 11.32C47.1885 11.2733 47.0851 11.2433 47.0318 11.23C46.6518 11.11 46.3685 10.9333 46.1818 10.7C45.9951 10.46 45.9018 10.1867 45.9018 9.88C45.9018 9.64667 45.9618 9.42 46.0818 9.2C46.2085 8.97333 46.4018 8.79 46.6618 8.65C46.9218 8.50333 47.2451 8.43 47.6318 8.43C47.9918 8.43 48.2985 8.46667 48.5518 8.54C48.8051 8.61333 49.0485 8.73333 49.2818 8.9L48.7518 9.72C48.6185 9.61333 48.4685 9.52667 48.3018 9.46C48.1418 9.38667 47.9951 9.35 47.8618 9.35C47.7018 9.35 47.5718 9.38333 47.4718 9.45C47.3718 9.51667 47.3218 9.59667 47.3218 9.69C47.3151 9.83 47.3718 9.93667 47.4918 10.01C47.6185 10.0767 47.8118 10.1467 48.0718 10.22C48.1118 10.2333 48.1518 10.2467 48.1918 10.26C48.2385 10.2733 48.2851 10.2867 48.3318 10.3C49.0185 10.5267 49.3618 10.94 49.3618 11.54C49.3618 11.82 49.2918 12.0767 49.1518 12.31C49.0118 12.5433 48.7985 12.7333 48.5118 12.88C48.2318 13.02 47.8885 13.09 47.4818 13.09Z" fill="#458EF6"/>
<path d="M145.5 17.5C148.261 17.5 150.5 15.2614 150.5 12.5C150.5 9.73858 148.261 7.5 145.5 7.5C142.739 7.5 140.5 9.73858 140.5 12.5C140.5 15.2614 142.739 17.5 145.5 17.5Z" fill="black"/>
<path d="M145.5 19C149.09 19 152 16.0899 152 12.5C152 8.91015 149.09 6 145.5 6C141.91 6 139 8.91015 139 12.5C139 16.0899 141.91 19 145.5 19Z" stroke="black" stroke-miterlimit="10"/>
<path d="M165.5 18C168.538 18 171 15.7614 171 13C171 10.2386 168.538 8 165.5 8C162.462 8 160 10.2386 160 13C160 15.7614 162.462 18 165.5 18Z" fill="#E61800"/>
<path d="M184.5 18C187.538 18 190 15.7614 190 13C190 10.2386 187.538 8 184.5 8C181.462 8 179 10.2386 179 13C179 15.7614 181.462 18 184.5 18Z" fill="#E67100"/>
<path d="M203.5 18C206.538 18 209 15.7614 209 13C209 10.2386 206.538 8 203.5 8C200.462 8 198 10.2386 198 13C198 15.7614 200.462 18 203.5 18Z" fill="#E6C400"/>
<path d="M222.5 18C225.538 18 228 15.7614 228 13C228 10.2386 225.538 8 222.5 8C219.462 8 217 10.2386 217 13C217 15.7614 219.462 18 222.5 18Z" fill="#70B200"/>
</svg>
